<?xml version="1.0" encoding="UTF-8" standalone="no"?>
<!-- Created with Inkscape (http://www.inkscape.org/) -->

<svg
   width="100"
   height="100"
   viewBox="0 0 26.458333 26.458333"
   version="1.1"
   id="svg1"
   xml:space="preserve"
   inkscape:version="1.4 (e7c3feb100, 2024-10-09)"
   sodipodi:docname="favicon.svg"
   inkscape:export-filename="C:\Users\reube\Downloads\expitau2.png"
   inkscape:export-xdpi="96"
   inkscape:export-ydpi="96"
   xmlns:inkscape="http://www.inkscape.org/namespaces/inkscape"
   xmlns:sodipodi="http://sodipodi.sourceforge.net/DTD/sodipodi-0.dtd"
   xmlns="http://www.w3.org/2000/svg"
   xmlns:svg="http://www.w3.org/2000/svg"><sodipodi:namedview
     id="namedview1"
     pagecolor="#ffffff"
     bordercolor="#000000"
     borderopacity="0.25"
     inkscape:showpageshadow="2"
     inkscape:pageopacity="0.0"
     inkscape:pagecheckerboard="0"
     inkscape:deskcolor="#d1d1d1"
     inkscape:document-units="mm"
     inkscape:zoom="6.4244207"
     inkscape:cx="43.972837"
     inkscape:cy="48.56469"
     inkscape:window-width="1920"
     inkscape:window-height="1131"
     inkscape:window-x="0"
     inkscape:window-y="0"
     inkscape:window-maximized="1"
     inkscape:current-layer="layer1"
     inkscape:pageshadow="0"
     showgrid="false"
     units="px"
     width="100px" /><defs
     id="defs1"><inkscape:path-effect
       effect="spiro"
       id="path-effect967"
       is_visible="true"
       lpeversion="1" /><mask
       maskUnits="userSpaceOnUse"
       id="mask31270"><path
         id="path31272"
         style="fill:#ffffff;fill-opacity:1;stroke:#ffffff;stroke-width:0.260978px;stroke-linecap:butt;stroke-linejoin:miter;stroke-opacity:1"
         d="m 7.4194932,19.045185 c -0.06158,-1.282376 0.1176271,-1.278795 0.691538,-2.796607 -0.07878,-1.08616 0.1146519,-1.856 0.339308,-2.746392 -0.6066869,-1.087779 -0.7160948,-2.607273 -0.08069,-3.067123 0.05349,-0.292411 -0.2353825,-2.1361715 0.03452,-2.2921066 0.2707891,-0.1564368 0.9898919,0.8057345 1.506457,1.2951126 0.7351748,-0.1080674 1.0089588,-0.1728798 1.7297148,-0.064671 0,0 1.258676,-1.5007032 1.508491,-1.3527889 0.249816,0.1479142 0.003,1.6265522 0.07895,2.3138459 0.239703,0.70694 0.450295,1.203437 0.400952,1.943469 1.163642,1.477636 1.626275,2.870976 2.362859,4.512752 0.736584,1.641776 0.660541,2.906163 0.734103,3.552229 0.07356,0.646067 -0.208264,1.230152 0.541734,1.115115 0.998161,-0.388946 1.387644,-0.433077 2.956896,-2.340655 0.819155,-0.995763 4.371345,-0.140375 -3.003486,5.167078 -0.84143,1.297396 -0.677799,1.855534 -1.907639,2.066823 -1.485751,0.02677 -3.987549,0.01253 -5.3749652,0.03752 -1.5225607,-2.213413 -2.3741785,-5.0769 -2.5187865,-7.343599 z"
         sodipodi:nodetypes="ccccscczcczzcsccccc" /></mask></defs><g
     inkscape:label="Layer 1"
     inkscape:groupmode="layer"
     id="layer1"><ellipse
       style="fill:#bb4da6;fill-opacity:1;stroke-width:0.0571112"
       id="path2"
       cx="13.229167"
       cy="13.229167"
       rx="13.216"
       ry="13.215938" /><circle
       style="fill:#ffffff;fill-opacity:1;stroke:none;stroke-width:0.006;stroke-miterlimit:4;stroke-dasharray:none;stroke-opacity:1"
       id="path2-4"
       cx="13.229167"
       cy="13.229167"
       r="13.229167"
       mask="url(#mask31270)"
       transform="matrix(1.0013354,0.08765357,-0.0876055,1.0018849,1.1986473,-1.2577682)" /><text
       xml:space="preserve"
       style="font-size:3.175px;text-align:start;writing-mode:lr-tb;direction:ltr;text-anchor:start;fill:none;fill-opacity:1;fill-rule:evenodd;stroke:none;stroke-width:7.454;stroke-linecap:round;stroke-linejoin:round;stroke-dasharray:none;stroke-opacity:1;paint-order:normal"
       x="99.945892"
       y="83.184776"
       id="text29"><tspan
         sodipodi:role="line"
         id="tspan29"
         style="stroke-width:7.454"
         x="99.945892"
         y="83.184776" /></text><text
       xml:space="preserve"
       style="font-size:70.5556px;text-align:start;writing-mode:lr-tb;direction:ltr;text-anchor:start;fill:#ffffff;fill-opacity:1;fill-rule:evenodd;stroke:#ffffff;stroke-width:1.7;stroke-linecap:round;stroke-linejoin:round;stroke-dasharray:none;stroke-opacity:1;paint-order:normal"
       x="90.634171"
       y="110.70612"
       id="text30"><tspan
         sodipodi:role="line"
         id="tspan30"
         style="font-style:normal;font-variant:normal;font-weight:normal;font-stretch:normal;font-size:70.5556px;font-family:Serif;-inkscape-font-specification:Serif;fill:#ffffff;fill-opacity:1;fill-rule:nonzero;stroke:#ffffff;stroke-width:1.7;stroke-dasharray:none;stroke-opacity:1"
         x="90.634171"
         y="110.70612" /></text><path
       sodipodi:type="spiral"
       style="fill:none;fill-rule:evenodd;stroke:#fffffa;stroke-width:8.74759;stroke-linecap:round;stroke-miterlimit:4;stroke-dasharray:none;stroke-opacity:1"
       id="path16692"
       sodipodi:cx="51.410759"
       sodipodi:cy="48.44175"
       sodipodi:expansion="0"
       sodipodi:revolution="6.9499998"
       sodipodi:radius="42.135025"
       sodipodi:argument="-46.025208"
       sodipodi:t0="0.94400001"
       d="M 55.201875,90.405874 C 32.342654,92.471018 11.511778,75.092087 9.4466342,52.232866 8.3322251,39.897396 12.84036,27.439597 21.590699,18.673909"
       transform="matrix(-0.22734211,0,0,0.22731789,24.431924,3.5630523)" /><path
       style="fill:#ffffff;fill-opacity:1;stroke:#ffffff;stroke-width:0.955;stroke-linecap:round;stroke-linejoin:round;stroke-miterlimit:4;stroke-dasharray:none;stroke-opacity:1"
       d="M 18.547769,5.0585296 16.657502,6.9491233 15.593512,4.275234 Z"
       id="path23800"
       sodipodi:nodetypes="cccc" /></g></svg>
