<svg width="292" height="292" viewBox="0 0 292 292" fill="none" xmlns="http://www.w3.org/2000/svg">
<g clip-path="url(#clip0_47_7)">
<rect width="292" height="292" rx="50" fill="white"/>
<path d="M154.871 240.55C138.887 240.55 125.062 237.75 113.396 232.15C101.729 226.433 92.104 218.85 84.5207 209.4C77.054 199.833 71.5124 189.275 67.8957 177.725C64.279 166.058 62.4707 154.333 62.4707 142.55C62.4707 123.3 66.554 106.792 74.7207 93.025C83.004 79.2583 94.0874 68.7583 107.971 61.525C121.854 54.175 137.254 50.5 154.171 50.5C167.121 50.5 178.846 53.0667 189.346 58.2C199.962 63.2167 208.596 70.3333 215.246 79.55C222.012 88.7667 226.096 99.675 227.496 112.275C229.012 124.875 227.204 138.7 222.071 153.75H124.071C126.521 145.7 130.196 138.933 135.096 133.45C139.996 127.85 145.421 125.05 151.371 125.05H182.521C183.454 117.933 182.812 111.283 180.596 105.1C178.379 98.9167 174.762 93.9583 169.746 90.225C164.846 86.375 158.837 84.45 151.721 84.45C145.304 84.45 138.946 86.375 132.646 90.225C126.346 94.075 121.096 100.142 116.896 108.425C112.812 116.708 110.771 127.5 110.771 140.8C110.771 154.217 112.812 165.708 116.896 175.275C121.096 184.725 126.871 191.958 134.221 196.975C141.687 201.992 150.321 204.5 160.121 204.5C168.171 204.5 176.162 203.508 184.096 201.525C192.029 199.425 201.071 196.1 211.221 191.55L223.471 224.1C210.871 230.05 198.971 234.25 187.771 236.7C176.687 239.267 165.721 240.55 154.871 240.55Z" fill="#111111"/>
</g>
<defs>
<clipPath id="clip0_47_7">
<rect width="292" height="292" fill="white"/>
</clipPath>
</defs>
</svg>
